<svg width="88" height="88" viewBox="0 0 88 88" fill="none" xmlns="http://www.w3.org/2000/svg">
<rect width="88" height="88" rx="44" fill="#DCFCE7"/>
<path fill-rule="evenodd" clip-rule="evenodd" d="M23.5835 43.9999C23.5835 32.7241 32.7243 23.5833 44.0002 23.5833C55.276 23.5833 64.4168 32.7241 64.4168 43.9999C64.4168 55.2757 55.276 64.4166 44.0002 64.4166C32.7243 64.4166 23.5835 55.2757 23.5835 43.9999ZM52.3564 40.4391C52.9672 39.6901 52.8551 38.5877 52.1061 37.977C51.357 37.3662 50.2546 37.4783 49.6439 38.2274L41.7485 47.9104C41.5888 48.1062 41.4587 48.2656 41.3439 48.4017C41.2148 48.2791 41.0679 48.135 40.8876 47.9579L38.2265 45.344C37.5369 44.6668 36.4289 44.6767 35.7517 45.3662C35.0744 46.0557 35.0844 47.1637 35.7739 47.841L38.4963 50.515C38.8687 50.8811 39.2658 51.2715 39.6432 51.5515C40.0818 51.8769 40.719 52.2291 41.5527 52.1831C42.3863 52.137 42.9809 51.7169 43.381 51.3451C43.7253 51.0252 44.077 50.5935 44.4069 50.1887L52.3564 40.4391Z" fill="#4ADE80"/>
</svg>
