<svg width="178" height="112" viewBox="0 0 178 112" fill="none" xmlns="http://www.w3.org/2000/svg">
<g id="Group 694">
<path id="Vector" d="M46.5215 68.2575C65.2239 68.2575 80.3852 52.9776 80.3852 34.1288C80.3852 15.28 65.2239 0 46.5215 0C27.819 0 12.6577 15.28 12.6577 34.1288C12.6577 52.9776 27.819 68.2575 46.5215 68.2575Z" fill="#F8FAFC"/>
<path id="Vector_2" d="M0.000488281 8.19452C0.000488281 20.6119 7.73003 30.6599 17.2823 30.6599L0.000488281 8.19452Z" fill="#475569"/>
<path id="Vector_3" d="M17.2837 30.66C17.2837 18.103 25.9094 7.94214 36.5691 7.94214L17.2837 30.66Z" fill="#562AC6"/>
<path id="Vector_4" d="M6.26318 9.32019C6.26318 21.1154 11.1922 30.6599 17.2834 30.6599L6.26318 9.32019Z" fill="#562AC6"/>
<path id="Vector_5" d="M17.2837 30.66C17.2837 14.615 27.2537 1.63165 39.5747 1.63165L17.2837 30.66Z" fill="#475569"/>
<path id="Vector_6" d="M13.647 30.8182C13.647 30.8182 16.0978 30.7421 16.8364 30.212C17.5751 29.682 20.6064 29.049 20.7897 29.8992C20.9729 30.7493 24.4728 34.1273 21.7058 34.1498C18.9389 34.1723 15.2766 33.7154 14.5394 33.2629C13.8022 32.8103 13.647 30.8182 13.647 30.8182Z" fill="#F1F5F9"/>
<path id="Vector_7" opacity="0.2" d="M21.7552 33.8539C18.9882 33.8764 15.326 33.4195 14.5888 32.9669C14.0274 32.6223 13.8036 31.3856 13.7288 30.815C13.677 30.8172 13.647 30.8182 13.647 30.8182C13.647 30.8182 13.8022 32.8103 14.5394 33.2629C15.2766 33.7154 18.9389 34.1723 21.7058 34.1498C22.5046 34.1433 22.7805 33.8569 22.7653 33.4327C22.6543 33.689 22.3497 33.8491 21.7552 33.8539Z" fill="#0F172A"/>
<path id="Vector_8" d="M31.5763 72.0934C47.9959 72.0934 61.3065 70.2684 61.3065 68.0172C61.3065 65.766 47.9959 63.941 31.5763 63.941C15.1568 63.941 1.84619 65.766 1.84619 68.0172C1.84619 70.2684 15.1568 72.0934 31.5763 72.0934Z" fill="#CBD5E1"/>
<path id="Vector_9" opacity="0.1" d="M31.5773 71.4395C45.3627 71.4395 56.538 69.9073 56.538 68.0172C56.538 66.1271 45.3627 64.5949 31.5773 64.5949C17.792 64.5949 6.6167 66.1271 6.6167 68.0172C6.6167 69.9073 17.792 71.4395 31.5773 71.4395Z" fill="#0F172A"/>
<path id="Vector_10" d="M124.109 112C153.872 112 178 108.682 178 104.588C178 100.495 153.872 97.1765 124.109 97.1765C94.3467 97.1765 70.2192 100.495 70.2192 104.588C70.2192 108.682 94.3467 112 124.109 112Z" fill="#CBD5E1"/>
<path id="Vector_11" d="M113.271 86.214L111.786 95.6272C111.786 95.6272 104.472 99.4832 109.614 99.5966C114.757 99.71 138.984 99.5966 138.984 99.5966C138.984 99.5966 143.67 99.5966 136.242 95.5138L134.756 85.647L113.271 86.214Z" fill="#475569"/>
<path id="Vector_12" opacity="0.1" d="M108.578 99.6243C109.746 98.5833 111.784 97.4986 111.784 97.4986L113.27 87.9972L134.756 88.0175L136.242 97.3841C137.974 98.3452 139.047 99.0819 139.675 99.647C140.629 99.4289 141.672 98.6186 136.242 95.6063L134.756 85.647L113.27 86.2193L111.784 95.7207C111.784 95.7207 105.638 98.9917 108.578 99.6243Z" fill="#0F172A"/>
<path id="Vector_13" d="M169.658 18.9412H78.5656C76.663 18.9412 75.1206 20.4858 75.1206 22.3913V83.844C75.1206 85.7494 76.663 87.2941 78.5656 87.2941H169.658C171.56 87.2941 173.103 85.7494 173.103 83.844V22.3913C173.103 20.4858 171.56 18.9412 169.658 18.9412Z" fill="#475569"/>
<path id="Vector_14" d="M169.021 22.2353H78.3872V74.1176H169.021V22.2353Z" fill="#CBD5E1"/>
<path id="Vector_15" d="M124.112 21.4117C124.563 21.4117 124.928 21.2274 124.928 21C124.928 20.7725 124.563 20.5882 124.112 20.5882C123.661 20.5882 123.295 20.7725 123.295 21C123.295 21.2274 123.661 21.4117 124.112 21.4117Z" fill="#F8FAFC"/>
<path id="Vector_16" d="M173.103 78.2352V83.9839C173.103 84.4186 173.014 84.8491 172.841 85.2507C172.668 85.6523 172.414 86.0172 172.094 86.3246C171.774 86.632 171.394 86.8758 170.976 87.0421C170.558 87.2085 170.11 87.294 169.658 87.294H78.5656C78.1132 87.294 77.6652 87.2085 77.2472 87.0421C76.8292 86.8758 76.4494 86.632 76.1295 86.3246C75.8096 86.0172 75.5558 85.6523 75.3827 85.2507C75.2096 84.8491 75.1205 84.4186 75.1206 83.9839V78.2352H173.103Z" fill="#475569"/>
<path id="Vector_17" d="M149.422 105.985V107.059H87.3667V106.199L87.4522 105.985L88.9816 102.118H148.153L149.422 105.985Z" fill="#475569"/>
<path id="Vector_18" d="M173.071 104.752C172.96 105.273 172.541 105.822 171.594 106.342C168.194 108.207 161.282 105.844 161.282 105.844C161.282 105.844 155.957 104.85 155.957 102.239C156.106 102.127 156.262 102.025 156.423 101.934C157.853 101.105 162.591 99.0574 170.994 102.021C171.613 102.234 172.166 102.632 172.591 103.169C172.931 103.607 173.198 104.161 173.071 104.752Z" fill="#300070"/>
<path id="Vector_19" d="M173.07 104.933C168.793 106.756 164.981 106.892 161.068 103.869C159.095 102.345 157.302 101.968 155.957 101.996C157.426 101.131 162.297 98.9976 170.935 102.087C171.571 102.309 172.139 102.723 172.576 103.284C172.926 103.739 173.201 104.318 173.07 104.933Z" fill="#4308AA"/>
<path id="Vector_20" d="M167.794 103.765C168.47 103.765 169.018 103.58 169.018 103.353C169.018 103.126 168.47 102.941 167.794 102.941C167.117 102.941 166.569 103.126 166.569 103.353C166.569 103.58 167.117 103.765 167.794 103.765Z" fill="#F8FAFC"/>
<path id="Vector_21" d="M124.111 84.8236C125.464 84.8236 126.561 83.9018 126.561 82.7648C126.561 81.6277 125.464 80.7059 124.111 80.7059C122.758 80.7059 121.662 81.6277 121.662 82.7648C121.662 83.9018 122.758 84.8236 124.111 84.8236Z" fill="#F8FAFC"/>
<path id="Vector_22" opacity="0.1" d="M149.422 106.235V107.059H87.3667V106.4L87.4522 106.235H149.422Z" fill="#0F172A"/>
<path id="Vector_23" d="M50.335 25.4764H17.2661V64.2518H50.335V25.4764Z" fill="#334155"/>
<path id="Vector_24" d="M53.6754 21.6309H13.9292V35.4106H53.6754V21.6309Z" fill="#94A3B8"/>
<path id="Vector_25" d="M53.6754 37.9742H13.9292V51.7539H53.6754V37.9742Z" fill="#94A3B8"/>
<path id="Vector_26" d="M53.6754 54.3176H13.9292V68.0973H53.6754V54.3176Z" fill="#94A3B8"/>
<path id="Vector_27" opacity="0.4" d="M45.7269 24.0344H43.1831V26.598H45.7269V24.0344Z" fill="#562AC6"/>
<path id="Vector_28" opacity="0.8" d="M49.3821 24.0344H46.8384V26.598H49.3821V24.0344Z" fill="#562AC6"/>
<path id="Vector_29" d="M53.0384 24.0344H50.4946V26.598H53.0384V24.0344Z" fill="#562AC6"/>
<path id="Vector_30" opacity="0.4" d="M45.7269 40.2175H43.1831V42.7811H45.7269V40.2175Z" fill="#562AC6"/>
<path id="Vector_31" opacity="0.8" d="M49.3821 40.2175H46.8384V42.7811H49.3821V40.2175Z" fill="#562AC6"/>
<path id="Vector_32" d="M53.0384 40.2175H50.4946V42.7811H53.0384V40.2175Z" fill="#562AC6"/>
<path id="Vector_33" opacity="0.4" d="M45.7269 56.4006H43.1831V58.9643H45.7269V56.4006Z" fill="#562AC6"/>
<path id="Vector_34" opacity="0.8" d="M49.3821 56.4006H46.8384V58.9643H49.3821V56.4006Z" fill="#562AC6"/>
<path id="Vector_35" d="M53.0384 56.4006H50.4946V58.9643H53.0384V56.4006Z" fill="#562AC6"/>
</g>
</svg>
