<svg width="24" height="24" viewBox="0 0 24 24" fill="none" xmlns="http://www.w3.org/2000/svg">
<path d="M18.752 16.9866C18.6682 17.082 18.6192 17.2036 18.6192 17.3306V18.8798C18.6192 19.1987 18.3247 19.4361 18.0131 19.3685L16.3157 19.0001C16.2432 18.9843 16.1682 18.9853 16.0956 19.0005C14.032 19.4323 11.8204 18.4995 10.6912 16.5438C9.29013 14.117 10.0865 11.0342 12.4699 9.65814C14.8533 8.28207 17.9213 9.13382 19.3224 11.5606C20.4362 13.4898 20.112 15.4395 18.752 16.9866Z" stroke="currentColor" stroke-width="1.5"/>
<path d="M17.8653 9.75365C17.8294 7.66071 16.8577 5.62388 15.0519 4.3168C11.976 2.09039 7.64477 2.82438 5.37788 5.95621C3.55452 8.47528 3.62207 11.7784 5.31894 14.1331C5.38415 14.2236 5.42065 14.3321 5.41919 14.4437L5.38704 16.9009C5.38227 17.2661 5.75783 17.513 6.09117 17.3639L8.58054 16.2503C8.69647 16.1984 8.82759 16.1932 8.94856 16.2319C9.50877 16.4109 10.079 16.5295 10.6472 16.5836" stroke="currentColor" stroke-width="1.5"/>
</svg>
