<svg width="24" height="24" viewBox="0 0 24 24" fill="none" xmlns="http://www.w3.org/2000/svg">
<path d="M8.0625 5H8C6.34315 5 5 6.34315 5 8V17C5 18.6569 6.34315 20 8 20H16C17.6569 20 19 18.6569 19 17V8C19 6.34315 17.6569 5 16 5H15.9375" stroke="currentColor" stroke-width="1.5"/>
<path d="M8 5C8 4.44772 8.44772 4 9 4H15C15.5523 4 16 4.44772 16 5V6C16 6.55228 15.5523 7 15 7H9C8.44772 7 8 6.55228 8 6V5Z" stroke="currentColor" stroke-width="1.5"/>
<path d="M9 12H14" stroke="currentColor" stroke-width="1.5" stroke-linecap="round"/>
<path d="M9 16H12" stroke="currentColor" stroke-width="1.5" stroke-linecap="round"/>
</svg>
