<svg width="24" height="24" viewBox="0 0 24 24" fill="none" xmlns="http://www.w3.org/2000/svg">
<path d="M4.5 6V11C4.5 11.8284 5.17157 12.5 6 12.5H9C9.82843 12.5 10.5 11.8284 10.5 11V6C10.5 5.17157 9.82843 4.5 9 4.5H6C5.17157 4.5 4.5 5.17157 4.5 6Z" stroke="currentColor" stroke-width="1.5" stroke-linecap="round"/>
<path d="M4.5 17V18C4.5 18.8284 5.17157 19.5 6 19.5H9C9.82843 19.5 10.5 18.8284 10.5 18V17C10.5 16.1716 9.82843 15.5 9 15.5H6C5.17157 15.5 4.5 16.1716 4.5 17Z" stroke="currentColor" stroke-width="1.5" stroke-linecap="round"/>
<path d="M13.5 6V8C13.5 8.82843 14.1716 9.5 15 9.5H18C18.8284 9.5 19.5 8.82843 19.5 8V6C19.5 5.17157 18.8284 4.5 18 4.5H15C14.1716 4.5 13.5 5.17157 13.5 6Z" stroke="currentColor" stroke-width="1.5" stroke-linecap="round"/>
<path d="M13.5 14V18C13.5 18.8284 14.1716 19.5 15 19.5H18C18.8284 19.5 19.5 18.8284 19.5 18V14C19.5 13.1716 18.8284 12.5 18 12.5H15C14.1716 12.5 13.5 13.1716 13.5 14Z" stroke="currentColor" stroke-width="1.5" stroke-linecap="round"/>
</svg>
