<svg width="24" height="24" viewBox="0 0 24 24" fill="none" xmlns="http://www.w3.org/2000/svg">
<path d="M4 11C4 9.34315 5.34315 8 7 8H17C18.6569 8 20 9.34315 20 11V17C20 18.6569 18.6569 20 17 20H7C5.34315 20 4 18.6569 4 17V11Z" stroke="currentColor" stroke-width="1.5"/>
<path d="M20 12V13C20 14.6569 18.6569 16 17 16H7C5.34315 16 4 14.6569 4 13V12" stroke="currentColor" stroke-width="1.5"/>
<path d="M12 17V14.5" stroke="currentColor" stroke-width="1.5" stroke-linecap="round"/>
<path d="M9.5 8H14.7941V7.00004C14.7941 5.89547 13.8987 5.00004 12.7941 5.00004H11.5C10.3954 5.00004 9.5 5.89547 9.5 7.00004V8Z" stroke="currentColor" stroke-width="1.5"/>
</svg>
