<svg width="24" height="24" viewBox="0 0 24 24" fill="none" xmlns="http://www.w3.org/2000/svg">
<circle cx="8" cy="7.5" r="3.5" stroke="currentColor" stroke-width="1.5"/>
<circle cx="17" cy="10.5" r="2.5" stroke="currentColor" stroke-width="1.5"/>
<path d="M12 18.5V16C12 14.3432 10.6569 13 9.00002 13L7.00002 13C5.34316 13 4.00001 14.3432 4 16L4 18.5C4 19.3285 4.67157 20 5.5 20H10.5C11.3284 20 12 19.3285 12 18.5Z" stroke="currentColor" stroke-width="1.5"/>
<path d="M20 19V17C20 15.8955 19.1046 15 18 15L16 15C14.8954 15 14 15.8954 14 17L14 19C14 19.5523 14.4477 20 15 20H19C19.5523 20 20 19.5523 20 19Z" stroke="currentColor" stroke-width="1.5"/>
</svg>
