<svg width="24" height="24" viewBox="0 0 24 24" fill="none" xmlns="http://www.w3.org/2000/svg">
<circle cx="10" cy="7.5" r="3.5" stroke="currentColor" stroke-width="1.5"/>
<path d="M15 5C16.6569 5 18 6.34315 18 8C18 9.65685 16.6569 11 15 11C14.8296 11 14.6626 10.9858 14.5 10.9585" stroke="currentColor" stroke-width="1.5" stroke-linecap="round"/>
<path d="M10 14C6.65636 14 4.87791 15.7792 4.2576 18.0226C3.96324 19.0872 4.89543 20 6 20H14C15.1046 20 16.0368 19.0872 15.7424 18.0226C15.1221 15.7792 13.3436 14 10 14Z" stroke="currentColor" stroke-width="1.5"/>
<path d="M17.5 19V19C18.8807 19 20.0465 17.828 19.4553 16.5803C18.7747 15.1439 17.4563 14 15.5 14" stroke="currentColor" stroke-width="1.5" stroke-linecap="round"/>
</svg>
