<svg width="480" height="480" viewBox="0 0 480 480" fill="none" xmlns="http://www.w3.org/2000/svg">
<path d="M240 0C107.47 0 0 107.47 0 240C0 372.53 107.47 480 240 480C372.594 480 480 372.53 480 240C480 107.47 372.594 0 240 0Z" fill="#3A0088"/>
<path d="M134.731 82.9955L275.463 408.055C285.926 420.455 298.649 424.912 310.597 424.912C318.8 424.912 327.067 423.039 333.783 419.293C337.529 417.42 339.402 412.576 337.529 408.83L205.839 96.0418C192.406 79.96 172.578 70.5951 152.363 70.5951C148.617 70.5951 145.258 70.5951 140.737 71.3701C135.506 72.4681 132.535 77.7641 134.731 82.9955Z" fill="#FFBD39"/>
</svg>
